# xmcd
#
# Track frame offsets:
#	150
#	16796
#	28650
#	40577
#	54931
#	68757
#	81790
#	93861
#	103394
#	113244
#	128421
#	140313
#	157264
#	169194
#	184198
#	198387
#	213608
#	225292
#	237958
#
# Disc length: 3472 seconds
#
# Revision: 1
# Processed by: cddbd v1.5.1PL2 Copyright (c) Steve Scherf et al.
# Submitted via: EasyCDDAExtractor 6.5.5.1
#
DISCID=f50d8e13
DTITLE=Samir - Perdoneme Mujer
DYEAR=1999
DGENRE=Blues
TTITLE0=Perdoneme Mujer
TTITLE1=Esclavo Y Amo
TTITLE2=En Ese Mas Alla
TTITLE3=25 Rosas
TTITLE4=Reconciliacion
TTITLE5=Una Lagrima Y Un Recuerdo
TTITLE6=Perdon Por Adorarte
TTITLE7=Como Poder Si Te Amo
TTITLE8=Te Llevare
TTITLE9=Yo Tambien Soy Sentimental
TTITLE10=Una Tercera Persona
TTITLE11=Mil Años
TTITLE12=No Quiero Ser Esclavo De Tu Amor
TTITLE13=Que Lastima
TTITLE14=Cuando No Me Quieras
TTITLE15=Mi Primer Amor
TTITLE16=Que Cosas Te Hice Yo
TTITLE17=Porque Ahora
TTITLE18=Para Reconciliarnos * El Ermitaño * Te Quiero Y Que
EXTD=
EXTT0=
EXTT1=
EXTT2=
EXTT3=
EXTT4=
EXTT5=
EXTT6=
EXTT7=
EXTT8=
EXTT9=
EXTT10=
EXTT11=
EXTT12=
EXTT13=
EXTT14=
EXTT15=
EXTT16=
EXTT17=
EXTT18=
PLAYORDER=
